<svg width="559" height="98" viewBox="0 0 559 98" fill="none" xmlns="http://www.w3.org/2000/svg">
<path d="M133.977 78.7342C133.977 63.1822 155.001 62.1262 162.969 62.1262H164.601V61.4542C164.601 55.0222 160.569 52.8142 155.193 52.8142C148.185 52.8142 141.753 57.5182 141.753 57.5182L137.145 48.7822C137.145 48.7822 144.729 42.7342 156.345 42.7342C169.209 42.7342 176.697 49.8382 176.697 62.2222V92.8462H165.465V88.8142C165.465 86.8942 165.657 85.3582 165.657 85.3582H165.465C165.561 85.3582 161.721 93.9982 150.585 93.9982C141.849 93.9982 133.977 88.5262 133.977 78.7342ZM146.265 78.1582C146.265 81.4222 148.665 84.4942 153.657 84.4942C160.089 84.4942 164.697 77.5822 164.697 71.6302V70.4782H162.585C156.345 70.4782 146.265 71.3422 146.265 78.1582ZM189.386 92.8462V43.8862H201.098V52.3342C201.098 54.1582 200.906 55.7902 200.906 55.7902H201.098C203.306 48.7822 209.162 43.2142 216.65 43.2142C217.802 43.2142 218.858 43.4062 218.858 43.4062V55.4062C218.858 55.4062 217.61 55.2142 215.978 55.2142C210.794 55.2142 204.938 58.1902 202.634 65.4862C201.866 67.8862 201.578 70.5742 201.578 73.4542V92.8462H189.386ZM229.185 74.8942V54.3502H222.849V44.6542H229.473V30.5422H241.377V44.6542H252.513V54.3502H241.377V73.3582C241.377 81.4222 247.713 82.5742 251.073 82.5742C252.417 82.5742 253.281 82.3822 253.281 82.3822V93.0382C253.281 93.0382 251.841 93.3262 249.537 93.3262C242.721 93.3262 229.185 91.3102 229.185 74.8942ZM263.261 92.8462V24.6862H275.453V48.3022C275.453 50.7022 275.261 52.4302 275.261 52.4302H275.453C277.853 47.7262 283.805 42.7342 292.349 42.7342C303.197 42.7342 309.341 48.3982 309.341 61.3582V92.8462H297.245V63.8542C297.245 57.9022 295.709 53.8702 289.469 53.8702C283.037 53.8702 278.045 58.0942 276.221 64.0462C275.645 65.9662 275.453 68.0782 275.453 70.3822V92.8462H263.261ZM333.176 92.8462L315.416 43.8862H328.28L338.456 74.2222C339.416 77.1022 340.088 81.6142 340.184 81.6142H340.376C340.472 81.6142 341.144 77.1022 342.104 74.2222L352.28 43.8862H365.144L347.576 92.8462H333.176ZM368.461 68.3662C368.461 53.2942 378.733 42.7342 393.325 42.7342C407.437 42.7342 415.021 53.0062 415.021 65.9662C415.021 67.4062 414.733 70.6702 414.733 70.6702H380.941C381.709 79.2142 388.333 83.6302 395.629 83.6302C403.501 83.6302 409.741 78.2542 409.741 78.2542L414.445 86.9902C414.445 86.9902 406.957 93.9982 394.765 93.9982C378.541 93.9982 368.461 82.2862 368.461 68.3662ZM381.325 62.3182H402.733C402.541 55.6942 398.413 52.1422 393.037 52.1422C386.797 52.1422 382.477 55.9822 381.325 62.3182ZM421.713 68.3662C421.713 52.8142 430.929 42.7342 443.889 42.7342C454.641 42.7342 458.001 48.9742 458.001 48.9742H458.193C458.193 48.9742 458.097 47.7262 458.097 46.1902V24.6862H470.289V92.8462H458.769V88.8142C458.769 86.9902 458.961 85.6462 458.961 85.6462H458.769C458.769 85.6462 454.641 93.9982 443.409 93.9982C430.161 93.9982 421.713 83.5342 421.713 68.3662ZM434.001 68.3662C434.001 77.6782 438.993 83.7262 446.193 83.7262C452.529 83.7262 458.481 79.1182 458.481 68.2702C458.481 60.6862 454.449 53.1982 446.289 53.1982C439.569 53.1982 434.001 58.6702 434.001 68.3662ZM479.633 78.7342C479.633 63.1822 500.657 62.1262 508.625 62.1262H510.257V61.4542C510.257 55.0222 506.225 52.8142 500.849 52.8142C493.841 52.8142 487.409 57.5182 487.409 57.5182L482.801 48.7822C482.801 48.7822 490.385 42.7342 502.001 42.7342C514.865 42.7342 522.353 49.8382 522.353 62.2222V92.8462H511.121V88.8142C511.121 86.8942 511.313 85.3582 511.313 85.3582H511.121C511.217 85.3582 507.377 93.9982 496.241 93.9982C487.505 93.9982 479.633 88.5262 479.633 78.7342ZM491.921 78.1582C491.921 81.4222 494.321 84.4942 499.313 84.4942C505.745 84.4942 510.353 77.5822 510.353 71.6302V70.4782H508.241C502.001 70.4782 491.921 71.3422 491.921 78.1582Z" fill="#4E80EE"/>
<path d="M72.4121 0.0829104C72.4121 0.134805 81.8077 18.7945 93.283 41.5464L114.154 82.9136V90.4531V98H92.8715H71.5892V72.0158V46.0316H76.3768C81.5609 46.0316 81.3364 46.0538 81.0148 45.6387C80.9325 45.5349 80.4986 44.9196 80.0498 44.2746C79.6084 43.6296 78.9427 42.6659 78.5686 42.1395C77.6859 40.8644 76.5938 39.3002 75.5764 37.8397C75.1276 37.1873 74.4244 36.1865 74.0279 35.6157C73.3621 34.6593 72.6964 33.7104 70.9908 31.2491C70.6392 30.745 69.9659 29.7813 69.4947 29.0992C69.0234 28.4246 68.3651 27.4757 68.0285 26.9938C67.0111 25.5259 65.8142 23.806 64.9465 22.568C64.4827 21.9156 63.8917 21.063 63.6299 20.6775C63.3606 20.292 62.6873 19.3209 62.1338 18.5276C61.5727 17.7344 60.8321 16.6668 60.4806 16.1553C60.1215 15.6438 59.4183 14.6281 58.9021 13.8942C58.386 13.1603 57.795 12.3077 57.593 12.0038C57.3836 11.6998 57.1891 11.4403 57.1517 11.4255C57.1218 11.4107 56.7403 11.9148 56.3139 12.5375C55.88 13.1603 55.2292 14.1018 54.8551 14.6355C54.4886 15.1619 53.8453 16.0886 53.4264 16.6891C53.0074 17.297 52.3192 18.2756 51.9003 18.8761C51.4814 19.484 50.853 20.3884 50.494 20.8999C48.7285 23.4353 47.8533 24.6956 47.2249 25.5927C46.8509 26.1338 46.1851 27.0902 45.7438 27.7203C44.7115 29.2104 44.113 30.0704 42.7515 32.0201C42.1381 32.8949 41.3976 33.955 41.1058 34.3702C40.8216 34.7928 40.2381 35.6231 39.8192 36.2236C39.4002 36.8315 38.727 37.7952 38.323 38.3735C37.6348 39.3595 36.5576 40.9089 34.9792 43.1774C33.6851 45.0382 33.0642 45.95 33.0642 45.9871C33.0642 46.0093 35.2036 46.0316 37.8144 46.0316H42.5645V72.0158V98H21.2822H-3.9557e-05V90.4012C-3.9557e-05 86.22 0.0224022 82.8024 0.0523246 82.8024C0.0897276 82.8024 9.50031 64.1723 20.983 41.3982L41.8539 0.00136223H57.1292C69.3077 -0.00605124 72.4121 0.0161892 72.4121 0.0829104Z" fill="#4E80EE"/>
</svg>
