<svg width="301" height="64" viewBox="0 0 301 64" fill="none" xmlns="http://www.w3.org/2000/svg">
<g clip-path="url(#clip0_2188_396)">
<path d="M12.4588 6.7696C24.54 -2.79402 42.9136 -1.28398 54.7431 8.53132C52.7296 11.0481 50.4643 13.5648 48.4508 16.0816C40.9 11.5514 31.084 7.52462 22.5265 12.3064C8.68339 19.3533 7.67663 41.7523 20.7646 50.0576C28.5671 55.3428 38.6348 53.3294 46.4372 49.3026C46.4372 45.2758 46.4372 41.5007 46.4372 37.4739C41.4034 37.4739 36.3696 37.4739 31.084 37.4739C31.084 35.2088 31.084 30.427 31.084 28.1619C39.6416 28.1619 48.1991 28.1619 56.7566 28.1619C56.7566 36.7189 56.7566 45.5275 56.7566 54.0844C44.4237 63.3963 26.5536 66.9198 13.4656 57.6078C-3.64953 46.5342 -3.90123 18.85 12.4588 6.7696Z" fill="#444444" stroke="#444444" stroke-width="0.125"/>
<path d="M68.8379 16.0816C71.3548 16.0816 76.6403 16.0816 79.1572 16.0816C79.1572 19.3534 79.1572 22.3735 79.1572 25.6453C82.9326 20.1084 88.2182 15.075 95.5172 15.075C95.5172 17.5917 95.769 22.8769 95.769 25.3936C90.7351 27.1553 84.4428 28.162 81.6742 33.6989C77.6471 42.5075 79.6606 52.5744 79.1572 61.8864C75.8852 62.1381 72.3616 62.1381 68.8379 62.3897C68.8379 47.0376 68.8379 31.4338 68.8379 16.0816Z" fill="#444444" stroke="#444444" stroke-width="0.125"/>
<path d="M116.156 17.5917C133.019 8.53141 155.42 25.3936 150.134 44.2692C147.114 61.8864 122.952 69.1849 110.115 56.8529C97.5308 46.5342 100.803 23.8835 116.156 17.5917ZM121.19 25.3936C110.87 29.1687 110.115 45.0242 118.421 51.3161C126.224 57.3562 139.815 52.0711 139.815 42.0041C142.584 31.1821 131.509 21.1151 121.19 25.3936Z" fill="#444444" stroke="#444444" stroke-width="0.125"/>
<path d="M158.189 16.0816C160.706 16.0816 165.991 16.0816 168.508 16.0816C171.78 26.4003 174.549 36.7189 177.821 47.0376C181.344 36.7189 184.616 26.4003 187.888 16.0816C190.154 16.0816 194.432 15.83 196.698 15.83C200.221 26.1486 202.99 36.9706 207.52 47.0376C210.289 36.4672 213.058 25.8969 217.085 15.83C219.35 15.83 223.88 16.0816 226.146 16.3333C222.37 31.9371 216.581 47.0376 211.547 62.6414C209.282 62.6414 205.003 62.3897 202.738 62.3897C199.215 52.8261 196.446 43.0108 192.922 33.4472C187.133 42.0041 186.126 53.0778 181.596 62.6414C179.331 62.6414 175.052 62.3897 172.787 62.3897C168.005 47.0376 162.719 31.6854 158.189 16.0816Z" fill="#444444" stroke="#444444" stroke-width="0.125"/>
<path d="M231.683 16.0816C234.451 16.0816 239.485 16.0816 242.002 16.0816C245.526 26.4003 248.295 36.7189 251.315 47.2892C255.845 37.2223 257.104 25.6453 262.641 15.83C264.403 15.83 267.926 15.83 269.688 15.83C274.974 25.6453 276.484 37.2223 281.014 47.2892C283.783 36.7189 286.803 26.4003 290.327 16.0816C292.844 16.0816 297.878 16.0816 300.395 16.0816C295.361 31.6854 290.83 47.5409 285.042 62.6414C282.776 62.6414 278.246 62.3897 276.232 62.3897C272.96 51.8194 269.437 41.5007 266.165 31.1821C261.886 41.5007 260.376 53.0778 254.587 62.6414C252.825 62.6414 249.301 62.6414 247.539 62.6414C240.492 47.7926 237.22 31.4338 231.683 16.0816Z" fill="#444444" stroke="#444444" stroke-width="0.125"/>
</g>
<defs>
<clipPath id="clip0_2188_396">
<rect width="301" height="64" fill="white"/>
</clipPath>
</defs>
</svg>
