<svg width="298" height="256" viewBox="0 0 298 256" fill="none" xmlns="http://www.w3.org/2000/svg">
<path d="M189.033 0.216583C189.033 0.352142 213.56 49.0958 243.516 108.529L298 216.591V236.286V256H242.442H186.885V188.123V120.246H199.383C212.916 120.246 212.33 120.304 211.49 119.219C211.275 118.948 210.143 117.341 208.971 115.656C207.819 113.971 206.081 111.454 205.104 110.079C202.8 106.748 199.949 102.662 197.293 98.8466C196.121 97.1424 194.286 94.528 193.251 93.0368C191.513 90.5387 189.775 88.0598 185.322 81.6304C184.405 80.3135 182.647 77.796 181.417 76.0143C180.187 74.252 178.468 71.7732 177.589 70.5144C174.933 66.68 171.809 62.1871 169.544 58.953C168.333 57.2488 166.79 55.0218 166.107 54.0148C165.404 53.0077 163.646 50.4708 162.201 48.3987C160.736 46.3265 158.803 43.5379 157.885 42.2016C156.948 40.8654 155.112 38.2123 153.765 36.2951C152.417 34.3778 150.875 32.1508 150.347 31.3568C149.801 30.5628 149.293 29.885 149.195 29.8463C149.117 29.8075 148.121 31.1244 147.008 32.7511C145.875 34.3778 144.177 36.8373 143.2 38.2316C142.243 39.6066 140.564 42.0273 139.47 43.596C138.377 45.184 136.58 47.7402 135.486 49.3089C134.393 50.8969 132.753 53.2595 131.815 54.5957C127.207 61.2188 124.922 64.511 123.281 66.8543C122.305 68.268 120.567 70.7662 119.415 72.4123C116.72 76.3048 115.158 78.5512 111.604 83.6444C110.002 85.9296 108.069 88.6989 107.307 89.7834C106.565 90.8872 105.042 93.0562 103.948 94.6248C102.855 96.2128 101.097 98.7304 100.043 100.241C98.2463 102.817 95.4342 106.864 91.3138 112.79C87.9354 117.651 86.3145 120.033 86.3145 120.13C86.3145 120.188 91.8996 120.246 98.7149 120.246H111.115V188.123V256H55.5577H0V236.15C0 225.228 0.0585938 216.3 0.136688 216.3C0.234344 216.3 24.8008 167.634 54.7765 108.142L109.26 0.0035553H149.137C180.929 -0.0158081 189.033 0.0422821 189.033 0.216583Z" fill="#4E80EE"/>
</svg>
