<svg width="226" height="64" viewBox="0 0 226 64" fill="none" xmlns="http://www.w3.org/2000/svg">
<path fill-rule="evenodd" clip-rule="evenodd" d="M151.393 11.9426V18.3462H140.566V36.6403C140.566 40.5262 142.822 42.4695 146.565 42.4695C148.589 42.4327 150.588 42.1393 152.527 41.5897L153.515 48.0665C151.674 48.7874 148.43 49.2885 145.48 49.2885C137.798 49.2885 132.97 44.9868 132.97 37.5566V18.3462H126.435V11.9426H133.092V0.210938H140.469V11.9426H151.393ZM109.816 26.4606C105.182 25.5074 103.463 24.3586 103.463 22.0734C103.463 19.3727 106.219 17.8085 111.766 17.8085C115.583 17.8085 119.96 18.6517 122.935 19.947L123.74 13.3968C120.679 12.0648 115.9 11.1849 111.388 11.1849C102.208 11.1849 96.0868 15.7554 96.0868 21.9634C96.0868 27.6094 99.5253 31.2876 105.987 32.5952L111.413 33.6951C116.156 34.6482 118.143 35.9803 118.143 38.4612C118.143 41.2839 115.57 42.6528 110.072 42.6528C105.756 42.6039 101.488 41.6994 97.5135 40.013L96.599 46.5387C99.769 48.2498 104.975 49.2761 110.559 49.2761C119.472 49.2761 125.507 45.7321 125.507 38.3387C125.507 31.972 121.533 28.8559 114.071 27.3281L109.816 26.4606ZM152.419 30.2368C152.419 19.5315 160.759 11.1849 171.927 11.1849C183.095 11.1849 191.435 19.5315 191.435 30.2368C191.435 40.9417 183.107 49.2885 171.939 49.2885C160.771 49.2885 152.431 40.9417 152.431 30.2368H152.419ZM159.99 30.2368C159.99 36.9825 165.014 42.2005 171.939 42.2005C178.864 42.2005 183.875 36.9702 183.875 30.2368C183.875 23.491 178.864 18.2728 171.939 18.2728C165.014 18.2728 160.002 23.491 160.002 30.2368H159.99ZM197.725 11.9426L207.235 24.823L216.757 11.9426H225.475L211.941 29.8454L225.78 48.5184H217.075L207.235 34.8436L197.408 48.5184H188.691L202.529 29.8454L188.995 11.9426H197.725ZM63.0454 16.9408C65.7642 13.4702 69.8976 11.1849 76.1277 11.1849C86.5647 11.1849 94.5628 19.1894 94.5628 30.4322C94.5628 41.675 86.5647 49.2885 76.1277 49.2885C69.8976 49.2885 65.7642 47.0033 63.0454 43.5326V63.7699H55.4739V11.9548H63.0454V16.9408ZM63.0942 30.4322C63.0942 37.1779 68.1784 42.506 75.2134 42.506C82.2849 42.506 86.9913 37.1656 87.0036 30.4322C87.0036 23.6865 82.2972 17.9673 75.2255 17.9673H75.2134C68.1419 17.9795 63.0942 23.6865 63.0942 30.4322ZM16.5452 31.5442C17.6547 30.762 18.7032 29.8822 19.6664 28.9168C21.4709 27.1204 22.9706 25.0551 24.1167 22.7943V32.5464C24.1167 38.6077 27.4452 42.1028 33.0658 42.1028C38.8453 42.1028 43.3929 38.6077 43.3929 32.5464V11.9426H50.9524V48.5184H43.3441V43.9113C42.1249 45.781 38.638 49.2761 31.8711 49.2761C21.8489 49.2761 16.533 43.0315 16.533 34.1471L16.5452 31.5442ZM0 35.7358V28.4036C4.41367 28.3912 8.64445 26.656 11.7901 23.5886C13.3263 22.0611 14.5578 20.2524 15.399 18.2605C16.2403 16.2563 16.6793 14.1177 16.6793 11.9547H24.1045C24.1045 15.0832 23.4827 18.1749 22.2634 21.059C21.0564 23.943 19.2763 26.5583 17.045 28.7579C12.4973 33.2305 6.37666 35.7358 0 35.7358Z" fill="#542087"/>
</svg>
