<svg width="458" height="64" viewBox="0 0 458 64" fill="none" xmlns="http://www.w3.org/2000/svg">
<g clip-path="url(#clip0_2188_407)">
<path d="M0 54.8952L36.5017 10.6975H1.14716V1.06207H50.6428V9.10577L14.1411 53.3044H50.6428V62.9389H0V54.8952ZM64.2525 1.06207H110.036V10.8737H75.0354V26.7849H106.06V36.5974H75.0354V53.1263H110.476V62.9379H64.2525V1.06207ZM123.469 1.06207H151.045C154.933 1.06207 158.38 1.60779 161.386 2.69734C164.392 3.78689 166.894 5.30467 168.898 7.24975C170.547 8.95987 171.816 10.9334 172.7 13.1721C173.583 15.4109 174.024 17.8875 174.024 20.5972V20.7743C174.024 23.3087 173.656 25.592 172.92 27.6252C172.184 29.6584 171.165 31.4566 169.87 33.0171C168.575 34.5775 167.027 35.9058 165.23 36.9944C163.433 38.083 161.444 38.9253 159.265 39.5136L175.969 62.9389H163.153L147.904 41.3706H147.728H134.251V62.9389H123.468L123.469 1.06207ZM150.212 31.7352C154.11 31.7352 157.215 30.8048 159.518 28.9393C161.821 27.0738 162.978 24.5442 162.978 21.3485V21.1713C162.978 17.7985 161.852 15.2376 159.606 13.4914C157.36 11.7453 154.198 10.8727 150.12 10.8727H134.251V31.7342L150.212 31.7352ZM216.89 64C212.117 64 207.758 63.1606 203.811 61.4817C199.865 59.8029 196.475 57.5196 193.647 54.6299C190.818 51.7402 188.609 48.3702 187.02 44.5094C185.43 40.6486 184.632 36.5387 184.632 32.1776V32.0005C184.632 27.6394 185.427 23.5295 187.02 19.6687C188.612 15.8079 190.848 12.4199 193.736 9.50275C196.624 6.5856 200.039 4.27292 203.989 2.56375C207.939 0.854583 212.295 0 217.068 0C221.842 0 226.201 0.839424 230.15 2.51922C234.098 4.19902 237.485 6.48328 240.314 9.37011C243.143 12.2569 245.35 15.6317 246.941 19.4915C248.533 23.3514 249.329 27.4623 249.329 31.8224V31.9995C249.329 36.3615 248.534 40.4724 246.941 44.3304C245.349 48.1883 243.111 51.5792 240.225 54.4963C237.338 57.4134 233.92 59.7271 229.971 61.4353C226.023 63.1435 221.664 64 216.89 64ZM217.068 54.0112C220.119 54.0112 222.92 53.4371 225.471 52.2878C228.022 51.1386 230.209 49.5782 232.028 47.6037C233.847 45.6293 235.27 43.3157 236.296 40.6638C237.323 38.0119 237.836 35.1829 237.836 32.1786V32.0014C237.836 28.9962 237.323 26.1529 236.296 23.4707C235.27 20.7886 233.83 18.4626 231.983 16.4882C230.137 14.5137 227.921 12.9381 225.337 11.7586C222.754 10.579 219.941 9.99067 216.889 9.99067C213.838 9.99067 211.037 10.5648 208.486 11.7141C205.935 12.8633 203.748 14.4256 201.929 16.3991C200.11 18.3726 198.687 20.6862 197.659 23.3381C196.63 25.99 196.119 28.819 196.119 31.8243V32.0014C196.119 35.0067 196.632 37.8499 197.659 40.5302C198.685 43.2105 200.125 45.5412 201.974 47.5147C203.822 49.4882 206.036 51.0657 208.618 52.2433C211.199 53.421 214.016 54.0112 217.068 54.0112ZM262.495 1.06207H285.565C290.396 1.06207 294.828 1.8437 298.867 3.40507C302.907 4.96644 306.378 7.13227 309.295 9.90161C312.213 12.671 314.465 15.9282 316.058 19.6706C317.651 23.4129 318.445 27.4651 318.445 31.8252V32.0024C318.445 36.3643 317.649 40.4307 316.058 44.2006C314.466 47.9704 312.213 51.2447 309.295 54.0122C306.378 56.7796 302.903 58.9634 298.867 60.5532C294.832 62.143 290.396 62.9398 285.565 62.9398H262.495V1.06207ZM285.476 53.1273C288.715 53.1273 291.662 52.6109 294.314 51.5744C296.965 50.5379 299.221 49.0903 301.075 47.2267C302.929 45.3631 304.373 43.1413 305.406 40.5662C306.438 37.9911 306.954 35.1971 306.954 32.1776V32.0005C306.954 28.982 306.436 26.1719 305.406 23.5683C304.375 20.9648 302.93 18.7307 301.075 16.8662C299.219 15.0016 296.965 13.5369 294.314 12.4711C291.662 11.4052 288.715 10.8727 285.476 10.8727H273.278V53.1263L285.476 53.1273ZM331.611 1.06207H342.394V26.7858H372.094V1.06207H382.877V62.9398H372.094V36.8627H342.394V62.9389H331.611V1.06207ZM420.703 0.619621H430.779L458 62.9389H446.51L440.235 47.9998H410.98L404.615 62.9389H393.479L420.703 0.619621ZM436.259 38.3663L425.563 13.6146L414.956 38.3663H436.259Z" fill="#387ED1"/>
</g>
<defs>
<clipPath id="clip0_2188_407">
<rect width="458" height="64" fill="white"/>
</clipPath>
</defs>
</svg>
